<svg xmlns="http://www.w3.org/2000/svg" viewBox="0 0 72 72" xml:space="preserve"><linearGradient id="a" gradientUnits="userSpaceOnUse" x1="36" y1="4" x2="36" y2="-68" gradientTransform="matrix(1 0 0 -1 0 4)"><stop offset="0" stop-color="#2aabee"/><stop offset="1" stop-color="#229ed9"/></linearGradient><path fill="url(#a)" d="M0 0h72v72H0z"/><g><path d="M18.79 36.33c9.66-4.21 16.1-6.99 19.33-8.33 9.2-3.83 11.12-4.5 12.36-4.52.28 0 .9.07 1.29.39.33.27.43.64.47.9.05.25.1.84.06 1.3-.5 5.24-2.66 17.96-3.76 23.83-.46 2.49-1.38 3.32-2.26 3.4-1.93.18-3.4-1.27-5.26-2.5-2.91-1.9-4.56-3.1-7.4-4.96-3.27-2.16-1.14-3.34.72-5.28.49-.5 8.97-8.22 9.13-8.92.02-.1.04-.42-.15-.59s-.48-.11-.69-.07c-.29.07-4.95 3.15-13.98 9.25-1.32.9-2.52 1.35-3.6 1.32-1.18-.02-3.45-.67-5.15-1.22-2.07-.67-3.72-1.03-3.58-2.17.08-.6.9-1.21 2.47-1.83z" fill="#fff"/></g></svg>